<?xml version="1.0" encoding="UTF-8"?>
<!DOCTYPE svg PUBLIC "-//W3C//DTD SVG 1.1//EN" "http://www.w3.org/Graphics/SVG/1.1/DTD/svg11.dtd">
<svg version="1.1" xmlns="http://www.w3.org/2000/svg" xmlns:xlink="http://www.w3.org/1999/xlink" x="0" y="0" width="96.744" height="38.578" viewBox="0 0 386.976 154.311">
  <g id="Layer_1">
    <text transform="matrix(1.069, 0, 0, 0.936, 187.264, 66.537)" id="tspan2989">
      <tspan x="-186.869" y="48" font-family="Helvetica-Bold" font-size="130.725" kerning="-23.5" fill="#000000">BISSOL</tspan>
    </text>
    <g id="g3008">
      <path d="M57.76,123.924 C68.357,120.312 78.503,115.488 88.562,110.6 C103.725,103.468 118.852,96.305 134.091,89.342 C139.391,86.888 142.216,85.676 147.293,82.967 C149.13,81.987 154.535,78.855 152.729,79.89 C142.418,85.797 111.555,103.64 121.78,97.584 C158.531,75.816 148.453,80.588 166.358,72.4 C174.249,69.225 182.262,66.602 190.373,64.066 C198.242,61.818 205.929,58.619 213.109,54.681 C222.322,50.119 211.06,55.783 219.904,51.065 C220.968,50.497 224.189,48.855 223.147,49.461 C212.056,55.902 200.902,62.231 189.755,68.574 C188.906,69.057 191.406,67.527 192.254,67.042 C205.141,59.656 218.057,52.321 230.959,44.961 C116.363,111.454 317.267,-5.958 199.955,63.05 C199.955,63.05 238.825,45.715 238.825,45.715 L238.825,45.715 C226.605,53.487 210.516,57.201 202.164,69.033 C201.23,70.355 301.532,10.621 197.928,71.41 C272.717,28.043 205.411,67.831 180.286,80.976 C172.815,84.498 165.145,87.634 157.152,89.773 C149.138,92.269 141.259,95.177 133.574,98.562 C132.213,99.263 128.174,101.444 129.492,100.665 C139.861,94.538 171.14,76.45 160.733,82.513 C141.292,93.84 122.449,106.076 101.779,114.992 C86.45,121.917 71.328,129.275 56.115,136.449 C45.703,141.296 35.228,145.97 24.643,150.414 C24.643,150.414 57.76,123.924 57.76,123.924 z" fill="#008000" id="path3001"/>
      <path d="M64.404,128.594 C73.773,128.562 83.205,129.451 92.465,127.87 C103.422,126.301 114.072,123.354 124.805,120.755 C135.092,118.559 145.393,116.456 155.682,114.264 C164.166,112.042 172.922,110.99 181.425,108.917 C187.887,106.833 194.624,105.389 201.034,103.148 C206.425,101.941 211.213,99.324 216.612,98.149 C217.016,97.944 220.23,96.237 220.751,96.276 C224.144,96.527 227.451,101.324 229.74,103.416 C234.198,108.918 237.786,115.029 241.757,120.872 C243.144,122.171 249.326,130.679 250.995,130.413 C251.4,130.348 251.538,129.799 251.809,129.492 C239.849,135.924 227.89,142.36 215.928,148.789 C215.319,149.117 217.206,148.768 219.028,146.339 C220.649,144.177 221.359,141.504 222.197,138.987 C224.354,131.954 225.399,124.661 227.239,117.543 C228.968,110.024 231.881,102.942 235.226,96.026 C238.864,88.909 241.459,81.341 244.303,73.888 C246.509,67.058 248.18,60.073 250.377,53.235 C252.411,48.079 253.516,42.663 255.52,37.495 C257.838,33.602 260.057,29.717 262.113,25.672 C261.066,24.539 255.711,24.923 253.873,24.86 C252.984,24.846 252.073,24.618 251.207,24.817 C249.617,25.185 248.356,26.413 246.872,27.093 C244.433,28.21 241.954,28.871 239.351,29.471 C233.731,29.917 228.328,31.214 222.801,32.229 C214.936,33.139 206.995,33.262 199.085,33.366 C191.796,33.456 184.506,33.474 177.217,33.483 C172.861,33.339 168.693,34.855 164.406,35.523 C164.406,35.523 198.251,10.03 198.251,10.03 L198.251,10.03 C202.599,9.189 206.925,8.301 211.391,8.66 C218.606,8.684 225.821,8.724 233.035,8.597 C240.888,8.391 248.803,8.266 256.533,6.718 C261.984,5.602 267.522,5.044 272.909,3.654 C277.997,1.947 282.731,-0.742 288.298,0.192 C293.44,0.682 298.717,1.435 300.377,7.132 C300.139,11.311 296.81,16.69 294.016,19.863 C291.491,24.835 290.421,30.157 288.777,35.449 C285.673,41.961 284.522,49.3 282.412,56.162 C279.637,63.693 277.091,71.345 273.534,78.538 C270.546,85.42 266.706,91.965 265.22,99.44 C263.201,106.548 262.136,113.803 260.393,120.969 C253.496,144.294 253.01,135.858 217.221,154.311 C212.143,151.666 209.098,146.437 205.413,142.215 C201.621,136.649 198.248,130.767 193.78,125.692 C188.029,120.51 189.915,121.88 183.009,123.951 C177.877,125.642 172.875,127.693 167.612,128.993 C161.041,130.761 154.601,132.996 147.927,134.36 C139.362,135.976 130.842,137.758 122.318,139.584 C112.069,141.737 101.792,143.757 91.591,146.136 C80.815,148.845 69.988,151.369 58.964,152.866 C49.366,153.702 39.736,153.216 30.111,153.509 C30.111,153.509 64.404,128.594 64.404,128.594 z" fill="#008000" id="path3003"/>
    </g>
    <text transform="matrix(1, 0, 0, 1, 192.492, 130.266)" id="tspan3038">
      <tspan x="-194.484" y="14.5" font-family="Helvetica-Bold" font-size="40" kerning="11.76" fill="#FF7F2A">CONSULTING</tspan>
    </text>
  </g>
</svg>
